<?xml version="1.0" encoding="UTF-8" standalone="no"?>
<svg width="141px" height="84px" viewBox="0 0 141 84" version="1.1" xmlns="http://www.w3.org/2000/svg" xmlns:xlink="http://www.w3.org/1999/xlink" xmlns:sketch="http://www.bohemiancoding.com/sketch/ns">
    <!-- Generator: Sketch 3.1.1 (8761) - http://www.bohemiancoding.com/sketch -->
    <title>Imported Layers</title>
    <desc>Created with Sketch.</desc>
    <defs></defs>
    <g id="Page-1" stroke="none" stroke-width="1" fill="none" fill-rule="evenodd" sketch:type="MSPage">
        <g id="Imported-EPS" sketch:type="MSLayerGroup" transform="translate(-187.000000, 2.000000)">
            <g id="Imported-Layers" transform="translate(187.000000, 0.000000)" sketch:type="MSShapeGroup">
                <path d="M99.673,24.099 L41.785,24.099 L28.359,37.524 L70.403,79.568 L112.307,37.664 L99.673,24.099 L99.673,24.099 Z" id="Stroke-1" stroke="#3A3C4A" stroke-width="3" stroke-linecap="round" stroke-linejoin="round"></path>
                <path d="M29.67,37.707 L111.136,37.707" id="Stroke-2" stroke="#3A3C4A" stroke-width="3" stroke-linecap="round"></path>
                <path d="M41.785,24.099 L55.794,37.707 L70.403,24.099 L84.413,37.707 L99.022,24.099 M55.794,37.707 L70.403,79.568 L84.413,37.707" id="Stroke-3" stroke="#3A3C4A" stroke-width="3" stroke-linecap="round" stroke-linejoin="round"></path>
                <path d="M1.97,27.484 L15.41,34.321 L0.333,34.039 L1.97,27.484" id="Fill-4" fill="#3A3C4A"></path>
                <path d="M13.797,9.799 L21.8,22.579 L9.02,14.576 L13.797,9.799" id="Fill-5" fill="#3A3C4A"></path>
                <path d="M31.204,0.35 L33.702,15.221 L24.961,2.933 L31.204,0.35" id="Fill-6" fill="#3A3C4A"></path>
                <path d="M138.697,27.484 L125.256,34.321 L140.333,34.039 L138.697,27.484" id="Fill-7" fill="#3A3C4A"></path>
                <path d="M126.87,9.799 L118.866,22.579 L131.647,14.576 L126.87,9.799" id="Fill-8" fill="#3A3C4A"></path>
                <path d="M109.463,0.35 L106.964,15.221 L115.705,2.933 L109.463,0.35" id="Fill-9" fill="#3A3C4A"></path>
                <path d="M63.5,-0.333 L77.167,13.333 M77.167,-0.333 L63.5,13.333" id="Stroke-10" stroke="#3A3C4A" stroke-width="3" stroke-linecap="round" stroke-linejoin="round"></path>
                <path d="M30.16,57.461 L32.48,64.601 L39.987,64.601 L33.914,69.013 L36.234,76.153 L30.16,71.74 L24.087,76.153 L26.407,69.013 L20.333,64.601 L27.84,64.601 L30.16,57.461" id="Fill-11" fill="#3A3C4A"></path>
                <path d="M120.333,64.425 L116.805,56.314 L114.781,56.314 L114.781,60.408 C115.776,60.944 116.452,61.995 116.452,63.204 C116.452,64.958 115.03,66.38 113.276,66.38 C111.523,66.38 110.101,64.958 110.101,63.204 C110.101,61.995 110.777,60.944 111.772,60.408 L111.772,56.314 L109.748,56.314 L106.22,64.425 L109.748,68.537 L109.746,68.453 L109.746,77.217 L116.791,77.3 L116.791,68.537 L116.805,68.537 L120.333,64.425" id="Fill-12" fill="#3A3C4A"></path>
            </g>
        </g>
    </g>
</svg>