<?xml version="1.0" encoding="UTF-8" standalone="no"?>
<svg width="141px" height="84px" viewBox="0 0 141 84" version="1.1" xmlns="http://www.w3.org/2000/svg" xmlns:xlink="http://www.w3.org/1999/xlink" xmlns:sketch="http://www.bohemiancoding.com/sketch/ns">
    <!-- Generator: Sketch 3.1.1 (8761) - http://www.bohemiancoding.com/sketch -->
    <title>Imported Layers</title>
    <desc>Created with Sketch.</desc>
    <defs></defs>
    <g id="Page-1" stroke="none" stroke-width="1" fill="none" fill-rule="evenodd" sketch:type="MSPage">
        <g id="Imported-Layers" sketch:type="MSLayerGroup" transform="translate(0.000000, 2.000000)">
            <path d="M99.673,24.849 L41.785,24.849 L28.359,38.274 L70.403,80.318 L112.307,38.414 L99.673,24.849 L99.673,24.849 Z" id="Stroke-1" stroke="#FFFFFF" stroke-width="3" stroke-linecap="round" stroke-linejoin="round" sketch:type="MSShapeGroup"></path>
            <path d="M29.67,38.457 L111.136,38.457" id="Stroke-2" stroke="#FFFFFF" stroke-width="3" stroke-linecap="round" sketch:type="MSShapeGroup"></path>
            <path d="M41.785,24.849 L55.794,38.457 L70.403,24.849 L84.413,38.457 L99.022,24.849 M55.794,38.457 L70.403,80.318 L84.413,38.457" id="Stroke-3" stroke="#FFFFFF" stroke-width="3" stroke-linecap="round" stroke-linejoin="round" sketch:type="MSShapeGroup"></path>
            <path d="M1.97,28.234 L15.41,35.071 L0.333,34.789 L1.97,28.234" id="Fill-4" fill="#FFFFFF" sketch:type="MSShapeGroup"></path>
            <path d="M13.797,10.549 L21.8,23.329 L9.02,15.326 L13.797,10.549" id="Fill-5" fill="#FFFFFF" sketch:type="MSShapeGroup"></path>
            <path d="M31.204,1.1 L33.702,15.971 L24.961,3.683 L31.204,1.1" id="Fill-6" fill="#FFFFFF" sketch:type="MSShapeGroup"></path>
            <path d="M138.697,28.234 L125.256,35.071 L140.333,34.789 L138.697,28.234" id="Fill-7" fill="#FFFFFF" sketch:type="MSShapeGroup"></path>
            <path d="M126.87,10.549 L118.866,23.329 L131.647,15.326 L126.87,10.549" id="Fill-8" fill="#FFFFFF" sketch:type="MSShapeGroup"></path>
            <path d="M109.463,1.1 L106.964,15.971 L115.705,3.683 L109.463,1.1" id="Fill-9" fill="#FFFFFF" sketch:type="MSShapeGroup"></path>
            <path d="M63.5,0.417 L77.167,14.083 M77.167,0.417 L63.5,14.083" id="Stroke-10" stroke="#FFFFFF" stroke-width="3" stroke-linecap="round" stroke-linejoin="round" sketch:type="MSShapeGroup"></path>
            <path d="M30.16,58.211 L32.48,65.351 L39.987,65.351 L33.914,69.763 L36.234,76.903 L30.16,72.49 L24.087,76.903 L26.407,69.763 L20.333,65.351 L27.84,65.351 L30.16,58.211" id="Fill-11" fill="#FFFFFF" sketch:type="MSShapeGroup"></path>
            <path d="M120.333,65.175 L116.805,57.064 L114.781,57.064 L114.781,61.158 C115.776,61.694 116.452,62.745 116.452,63.955 C116.452,65.708 115.03,67.13 113.276,67.13 C111.523,67.13 110.101,65.708 110.101,63.955 C110.101,62.745 110.777,61.694 111.772,61.158 L111.772,57.064 L109.748,57.064 L106.22,65.175 L109.748,69.287 L109.746,69.203 L109.746,77.967 L116.791,78.05 L116.791,69.287 L116.805,69.287 L120.333,65.175" id="Fill-12" fill="#FFFFFF" sketch:type="MSShapeGroup"></path>
        </g>
    </g>
</svg>